<svg width="443" height="387" viewBox="0 0 443 387" fill="none" xmlns="http://www.w3.org/2000/svg">
<g clip-path="url(#clip0_232_1646)">
<path d="M471 334.398H-29V334.648H471V334.398Z" fill="#EBEBEB"/>
<path d="M420.901 350.494H387.779V350.744H420.901V350.494Z" fill="#EBEBEB"/>
<path d="M375.187 350.494H304.381V350.744H375.187V350.494Z" fill="#EBEBEB"/>
<path d="M265.333 341.208H246.141V341.458H265.333V341.208Z" fill="#EBEBEB"/>
<path d="M57.749 342.888H23.459V343.138H57.749V342.888Z" fill="#EBEBEB"/>
<path d="M129 342.888H66.652V343.138H129V342.888Z" fill="#EBEBEB"/>
<path d="M196.147 347.111H159.333V347.361H196.147V347.111Z" fill="#EBEBEB"/>
<path d="M208.014 289.8H14.915C11.768 289.8 9.20703 287.239 9.20703 284.092V12.66C9.20703 9.51303 11.768 6.95203 14.915 6.95203H208.014C211.16 6.95203 213.721 9.51303 213.721 12.66V284.092C213.721 287.239 211.16 289.8 208.014 289.8ZM14.915 7.20303C11.905 7.20303 9.45703 9.65103 9.45703 12.661V284.093C9.45703 287.103 11.905 289.551 14.915 289.551H208.014C211.023 289.551 213.471 287.103 213.471 284.093V12.66C213.471 9.65103 211.023 7.20203 208.014 7.20203L14.915 7.20303Z" fill="#EBEBEB"/>
<path d="M424.31 289.8H231.212C228.065 289.8 225.505 287.239 225.505 284.092V12.66C225.505 9.51303 228.066 6.95203 231.212 6.95203H424.31C427.458 6.95203 430.018 9.51303 430.018 12.66V284.092C430.019 287.239 427.458 289.8 424.31 289.8ZM231.212 7.20303C228.203 7.20303 225.755 9.65103 225.755 12.661V284.093C225.755 287.103 228.203 289.551 231.212 289.551H424.31C427.32 289.551 429.768 287.103 429.768 284.093V12.66C429.768 9.65103 427.32 7.20203 424.31 7.20203L231.212 7.20303Z" fill="#EBEBEB"/>
<path d="M35.3171 183.56L294.43 183.56V26.7789L35.3171 26.7789V183.56Z" fill="#E6E6E6"/>
<path d="M31.2741 183.56L292.673 183.56V26.7789L31.2741 26.7789V183.56Z" fill="#F5F5F5"/>
<path d="M285.416 175.717V34.6215L38.5305 34.6215L38.5305 175.717L285.416 175.717Z" fill="#FAFAFA"/>
<path d="M265.885 175.718L212.729 34.621H190.348L243.504 175.718H265.885Z" fill="white"/>
<path d="M237.16 175.718L184.003 34.621H168.592L221.749 175.718H237.16Z" fill="white"/>
<path d="M143.245 175.718L90.088 34.621H74.677L127.833 175.718H143.245Z" fill="white"/>
<path d="M100.695 175.717L100.695 34.621H92.0371L92.0371 175.717H100.695Z" fill="#E6E6E6"/>
<path d="M237.708 175.717L237.708 34.6212H229.05L229.05 175.717H237.708Z" fill="#E6E6E6"/>
<path d="M99.1343 180.694L99.1343 28.7907L88.1903 28.7907L88.1903 180.694H99.1343Z" fill="#F5F5F5"/>
<path d="M236.147 180.694L236.147 28.7908L225.203 28.7908L225.203 180.694H236.147Z" fill="#F5F5F5"/>
<path d="M39.3013 175.718L39.3013 34.6217H38.5313L38.5313 175.718H39.3013Z" fill="#E6E6E6"/>
<path d="M28.258 16.694H302.289C302.821 16.694 303.256 17.129 303.256 17.661V17.726C303.256 18.258 302.821 18.693 302.289 18.693H28.258C27.726 18.693 27.291 18.258 27.291 17.726V17.661C27.291 17.129 27.726 16.694 28.258 16.694Z" fill="#E6E6E6"/>
<path d="M294.43 20.493C295.125 20.493 295.694 19.924 295.694 19.229V16.157C295.694 15.462 295.125 14.893 294.43 14.893C293.735 14.893 293.166 15.462 293.166 16.157V19.229C293.166 19.924 293.735 20.493 294.43 20.493Z" fill="#E6E6E6"/>
<path d="M42.341 20.493C43.036 20.493 43.605 19.924 43.605 19.229V16.157C43.605 15.462 43.036 14.893 42.341 14.893C41.646 14.893 41.077 15.462 41.077 16.157V19.229C41.077 19.924 41.646 20.493 42.341 20.493Z" fill="#E6E6E6"/>
<path opacity="0.6" d="M28.5262 129.56L289.792 129.56V17.6943L28.5262 17.6943V129.56Z" fill="#EBEBEB"/>
<path d="M339.921 126.439L406.065 126.439V58.8101L339.921 58.8101V126.439Z" fill="#E0E0E0"/>
<path d="M335.933 126.439L404.323 126.439V58.8101L335.933 58.8101V126.439Z" fill="#F5F5F5"/>
<path d="M341.663 66.483V118.766H398.594V66.483H341.663Z" fill="white"/>
<path d="M387.16 328.785H405.667V212.668H387.16V328.785Z" fill="#F0F0F0"/>
<path d="M198.208 334.398H402.113V328.785H198.208V334.398Z" fill="#F0F0F0"/>
<path d="M387.159 212.668H194.654V328.785H387.159V212.668Z" fill="#F5F5F5"/>
<path d="M387.16 212.668H405.667V207.77H387.16V212.668Z" fill="#E6E6E6"/>
<path d="M387.159 207.77H194.654V212.668H387.159V207.77Z" fill="#F0F0F0"/>
<path d="M380.505 253.249H201.309V222.95H380.505V253.249ZM202.553 252.005H379.261V224.194H202.553V252.005Z" fill="#E0E0E0"/>
<path d="M380.505 318.503H201.309V260.677H380.505V318.503ZM202.553 317.259H379.261V261.921H202.553V317.259Z" fill="#E0E0E0"/>
<path d="M225.452 227.557L356.362 227.557V223.573L225.452 223.573V227.557Z" fill="#E0E0E0"/>
<path d="M225.452 265.283H356.362V261.299H225.452V265.283Z" fill="#E0E0E0"/>
<path d="M336.207 205.65H265.066V207.77H336.207V205.65Z" fill="#E0E0E0"/>
<path d="M336.207 205.65H265.066L271.914 164.922H343.054L336.207 205.65Z" fill="#E0E0E0"/>
<path d="M334.886 205.65H263.746L270.593 164.922H341.734L334.886 205.65Z" fill="#EBEBEB"/>
<path d="M266.448 202.449L272.27 167.819C272.344 167.378 272.725 167.056 273.172 167.056H338.13C338.696 167.056 339.126 167.564 339.032 168.122L333.21 202.752C333.136 203.192 332.755 203.515 332.308 203.515H267.35C266.784 203.515 266.354 203.007 266.448 202.449Z" fill="#FAFAFA"/>
<path d="M320.112 205.65H248.971V207.77H320.112V205.65Z" fill="#F0F0F0"/>
<path d="M140.072 194.881H102.022C93.4431 194.881 85.7041 202.309 83.6801 212.485L77.3151 244.491L64.2361 244.439H64.1951C57.9601 244.439 52.6041 249.774 51.4331 257.149L49.6901 268.107C47.0581 268.564 44.8021 270.983 44.1641 274.187H122.758C131.329 274.187 139.061 266.766 141.083 256.599L150.223 210.64C151.86 202.413 147.009 194.881 140.072 194.881ZM62.8211 268.023H53.1531L54.7751 257.92C55.6401 252.487 59.6011 248.537 64.1951 248.537H64.2291L76.5001 248.586L74.9501 256.383C73.6121 263.111 68.4941 268.023 62.8211 268.023Z" fill="#E6E6E6"/>
<path d="M121.138 274.188H123.899L129.13 334.398H126.369L121.138 274.188Z" fill="#E0E0E0"/>
<path d="M110.778 274.188H113.539L118.77 334.398H116.009L110.778 274.188Z" fill="#E0E0E0"/>
<path d="M56.168 274.188H53.407L48.176 334.398H50.937L56.168 274.188Z" fill="#E0E0E0"/>
<path d="M66.528 274.188H63.767L58.536 334.398H61.297L66.528 274.188Z" fill="#E0E0E0"/>
<path d="M221 379.561C328.082 379.561 414.889 374.492 414.889 368.238C414.889 361.984 328.082 356.915 221 356.915C113.918 356.915 27.111 361.984 27.111 368.238C27.111 374.492 113.918 379.561 221 379.561Z" fill="#F5F5F5"/>
<path d="M340.513 148.939H101.487C94.069 148.939 88 142.87 88 135.452V43.987C88 36.569 94.069 30.5 101.487 30.5H340.513C347.931 30.5 354 36.569 354 43.987V135.452C354 142.87 347.931 148.939 340.513 148.939Z" fill="#407BFF"/>
<path opacity="0.6" d="M340.513 148.939H101.487C94.069 148.939 88 142.87 88 135.452V43.987C88 36.569 94.069 30.5 101.487 30.5H340.513C347.931 30.5 354 36.569 354 43.987V135.452C354 142.87 347.931 148.939 340.513 148.939Z" fill="white"/>
<path opacity="0.9" d="M101.487 145.939C95.705 145.939 91 141.234 91 135.452V43.987C91 38.205 95.705 33.5 101.487 33.5H340.512C346.294 33.5 350.999 38.205 350.999 43.987V135.452C350.999 141.234 346.294 145.939 340.512 145.939H101.487Z" fill="white"/>
<path d="M197.247 81.008V73.85H199.947C200.423 73.85 200.785 73.873 201.036 73.918C201.388 73.977 201.682 74.088 201.92 74.252C202.157 74.417 202.349 74.647 202.493 74.943C202.638 75.239 202.711 75.565 202.711 75.92C202.711 76.529 202.518 77.044 202.13 77.465C201.742 77.886 201.043 78.097 200.03 78.097H198.194V81.007L197.247 81.008ZM198.194 77.253H200.045C200.657 77.253 201.092 77.139 201.349 76.911C201.606 76.683 201.735 76.363 201.735 75.949C201.735 75.65 201.66 75.393 201.507 75.18C201.357 74.967 201.157 74.826 200.909 74.758C200.75 74.715 200.455 74.695 200.025 74.695H198.194V77.253Z" fill="#263238"/>
<path d="M203.794 81.008V75.822H204.585V76.608C204.787 76.24 204.973 75.998 205.145 75.88C205.315 75.763 205.503 75.704 205.708 75.704C206.004 75.704 206.306 75.798 206.611 75.987L206.308 76.802C206.093 76.675 205.878 76.612 205.663 76.612C205.471 76.612 205.299 76.67 205.145 76.785C204.992 76.901 204.883 77.061 204.818 77.266C204.72 77.579 204.672 77.92 204.672 78.291V81.006H203.794V81.008Z" fill="#263238"/>
<path d="M206.807 78.415C206.807 77.455 207.074 76.744 207.608 76.281C208.054 75.897 208.597 75.705 209.239 75.705C209.952 75.705 210.535 75.938 210.987 76.406C211.439 76.873 211.666 77.518 211.666 78.342C211.666 79.01 211.565 79.534 211.366 79.917C211.165 80.299 210.874 80.597 210.491 80.808C210.109 81.019 209.691 81.125 209.239 81.125C208.513 81.125 207.926 80.892 207.479 80.427C207.031 79.962 206.807 79.291 206.807 78.415ZM207.71 78.415C207.71 79.079 207.855 79.576 208.145 79.907C208.435 80.238 208.799 80.403 209.239 80.403C209.675 80.403 210.038 80.237 210.328 79.905C210.618 79.573 210.763 79.067 210.763 78.386C210.763 77.745 210.617 77.259 210.325 76.929C210.034 76.598 209.672 76.433 209.239 76.433C208.8 76.433 208.435 76.598 208.145 76.926C207.855 77.255 207.71 77.752 207.71 78.415Z" fill="#263238"/>
<path d="M212.535 81.438L213.39 81.565C213.426 81.829 213.525 82.021 213.688 82.141C213.906 82.304 214.204 82.3849 214.582 82.3849C214.989 82.3849 215.303 82.303 215.524 82.141C215.746 81.978 215.895 81.75 215.973 81.457C216.019 81.278 216.039 80.9019 216.036 80.3289C215.652 80.7819 215.174 81.0079 214.6 81.0079C213.887 81.0079 213.335 80.751 212.945 80.237C212.554 79.723 212.359 79.106 212.359 78.386C212.359 77.891 212.449 77.435 212.627 77.016C212.806 76.597 213.066 76.275 213.405 76.047C213.746 75.819 214.145 75.705 214.604 75.705C215.216 75.705 215.72 75.953 216.118 76.447V75.822H216.929V80.304C216.929 81.111 216.847 81.683 216.683 82.02C216.518 82.357 216.257 82.6229 215.902 82.8179C215.545 83.0129 215.106 83.1109 214.586 83.1109C213.968 83.1109 213.468 82.972 213.087 82.694C212.706 82.417 212.522 81.998 212.535 81.438ZM213.262 78.323C213.262 79.003 213.397 79.5 213.667 79.812C213.938 80.125 214.275 80.281 214.683 80.281C215.086 80.281 215.425 80.126 215.699 79.815C215.972 79.504 216.109 79.017 216.109 78.353C216.109 77.718 215.968 77.24 215.687 76.917C215.405 76.595 215.066 76.434 214.669 76.434C214.278 76.434 213.946 76.593 213.673 76.91C213.399 77.227 213.262 77.698 213.262 78.323Z" fill="#263238"/>
<path d="M218.248 81.008V75.822H219.039V76.608C219.241 76.24 219.427 75.998 219.598 75.88C219.768 75.763 219.956 75.704 220.162 75.704C220.458 75.704 220.76 75.798 221.065 75.987L220.762 76.802C220.547 76.675 220.332 76.612 220.117 76.612C219.925 76.612 219.753 76.67 219.599 76.785C219.445 76.9 219.337 77.061 219.272 77.266C219.174 77.579 219.126 77.92 219.126 78.291V81.006H218.248V81.008Z" fill="#263238"/>
<path d="M225.137 79.338L226.045 79.45C225.902 79.981 225.637 80.392 225.249 80.685C224.861 80.978 224.367 81.124 223.765 81.124C223.006 81.124 222.405 80.891 221.961 80.423C221.516 79.956 221.294 79.301 221.294 78.458C221.294 77.585 221.519 76.909 221.968 76.427C222.417 75.945 223 75.704 223.716 75.704C224.409 75.704 224.976 75.94 225.415 76.412C225.854 76.884 226.074 77.548 226.074 78.404C226.074 78.456 226.072 78.534 226.069 78.638H222.202C222.234 79.208 222.395 79.644 222.685 79.947C222.975 80.25 223.336 80.401 223.769 80.401C224.091 80.401 224.367 80.317 224.594 80.147C224.823 79.979 225.003 79.71 225.137 79.338ZM222.251 77.918H225.147C225.108 77.482 224.998 77.155 224.815 76.936C224.535 76.598 224.172 76.428 223.726 76.428C223.323 76.428 222.983 76.563 222.707 76.833C222.433 77.104 222.281 77.465 222.251 77.918Z" fill="#263238"/>
<path d="M226.797 79.46L227.666 79.323C227.715 79.671 227.851 79.938 228.073 80.124C228.297 80.31 228.608 80.402 229.009 80.402C229.412 80.402 229.712 80.32 229.907 80.155C230.102 79.99 230.2 79.798 230.2 79.576C230.2 79.377 230.114 79.221 229.941 79.107C229.821 79.029 229.521 78.93 229.043 78.809C228.398 78.646 227.952 78.505 227.702 78.387C227.454 78.268 227.264 78.104 227.136 77.894C227.008 77.684 226.944 77.452 226.944 77.198C226.944 76.967 226.997 76.753 227.103 76.556C227.208 76.359 227.352 76.196 227.535 76.065C227.672 75.964 227.858 75.878 228.094 75.809C228.33 75.739 228.583 75.704 228.854 75.704C229.261 75.704 229.618 75.763 229.926 75.88C230.233 75.997 230.46 76.156 230.607 76.356C230.753 76.556 230.854 76.824 230.91 77.159L230.051 77.276C230.012 77.009 229.899 76.801 229.712 76.651C229.524 76.501 229.26 76.426 228.918 76.426C228.515 76.426 228.227 76.493 228.054 76.626C227.881 76.759 227.795 76.916 227.795 77.095C227.795 77.209 227.831 77.311 227.902 77.403C227.973 77.497 228.086 77.575 228.239 77.637C228.327 77.67 228.586 77.744 229.015 77.862C229.637 78.028 230.071 78.164 230.317 78.27C230.562 78.376 230.756 78.53 230.895 78.731C231.035 78.933 231.105 79.184 231.105 79.483C231.105 79.776 231.02 80.052 230.848 80.311C230.678 80.57 230.431 80.77 230.109 80.912C229.787 81.054 229.422 81.124 229.015 81.124C228.341 81.124 227.827 80.984 227.475 80.704C227.121 80.426 226.895 80.011 226.797 79.46Z" fill="#263238"/>
<path d="M231.797 79.46L232.666 79.323C232.715 79.671 232.851 79.938 233.073 80.124C233.297 80.31 233.608 80.402 234.009 80.402C234.412 80.402 234.712 80.32 234.907 80.155C235.102 79.99 235.2 79.798 235.2 79.576C235.2 79.377 235.114 79.221 234.941 79.107C234.821 79.029 234.521 78.93 234.043 78.809C233.398 78.646 232.952 78.505 232.702 78.387C232.454 78.268 232.264 78.104 232.136 77.894C232.008 77.684 231.944 77.452 231.944 77.198C231.944 76.967 231.997 76.753 232.103 76.556C232.208 76.359 232.352 76.196 232.535 76.065C232.672 75.964 232.858 75.878 233.094 75.809C233.33 75.739 233.583 75.704 233.854 75.704C234.261 75.704 234.618 75.763 234.926 75.88C235.233 75.997 235.46 76.156 235.607 76.356C235.753 76.556 235.854 76.824 235.91 77.159L235.051 77.276C235.012 77.009 234.899 76.801 234.712 76.651C234.524 76.501 234.26 76.426 233.918 76.426C233.515 76.426 233.227 76.493 233.054 76.626C232.881 76.759 232.795 76.916 232.795 77.095C232.795 77.209 232.831 77.311 232.902 77.403C232.973 77.497 233.086 77.575 233.239 77.637C233.327 77.67 233.586 77.744 234.015 77.862C234.637 78.028 235.071 78.164 235.317 78.27C235.562 78.376 235.756 78.53 235.895 78.731C236.035 78.933 236.105 79.184 236.105 79.483C236.105 79.776 236.02 80.052 235.848 80.311C235.678 80.57 235.431 80.77 235.109 80.912C234.787 81.054 234.422 81.124 234.015 81.124C233.341 81.124 232.827 80.984 232.475 80.704C232.121 80.426 231.895 80.011 231.797 79.46Z" fill="#263238"/>
<path d="M237.398 81.0079V80.007H238.399V81.0079H237.398Z" fill="#263238"/>
<path d="M240.176 81.0079V80.007H241.177V81.0079H240.176Z" fill="#263238"/>
<path d="M242.955 81.0079V80.007H243.956V81.0079H242.955Z" fill="#263238"/>
<path opacity="0.7" d="M340.513 33.501H101.487C95.705 33.501 91 38.206 91 43.988V55.231H351V43.987C351 38.205 346.295 33.501 340.513 33.501Z" fill="#407BFF"/>
<path d="M111.833 44.366C111.833 42.266 110.131 40.564 108.031 40.564C105.931 40.564 104.229 42.266 104.229 44.366C104.229 46.466 105.931 48.168 108.031 48.168C110.131 48.167 111.833 46.465 111.833 44.366Z" fill="white"/>
<path d="M126.833 44.366C126.833 42.266 125.131 40.564 123.031 40.564C120.931 40.564 119.229 42.266 119.229 44.366C119.229 46.466 120.931 48.168 123.031 48.168C125.131 48.167 126.833 46.465 126.833 44.366Z" fill="white"/>
<path d="M141.833 44.366C141.833 42.266 140.131 40.564 138.031 40.564C135.931 40.564 134.229 42.266 134.229 44.366C134.229 46.466 135.931 48.168 138.031 48.168C140.131 48.167 141.833 46.465 141.833 44.366Z" fill="white"/>
<path opacity="0.1" d="M333.342 104.342H108.658C106.829 104.342 105.333 102.846 105.333 101.017C105.333 99.188 106.829 97.692 108.658 97.692H333.341C335.17 97.692 336.666 99.188 336.666 101.017C336.666 102.845 335.17 104.342 333.342 104.342Z" fill="#407BFF"/>
<path d="M275.509 104.342H108.659C106.83 104.342 105.334 102.846 105.334 101.017C105.334 99.188 106.83 97.692 108.659 97.692H275.509C277.338 97.692 278.834 99.188 278.834 101.017C278.833 102.845 277.337 104.342 275.509 104.342Z" fill="#407BFF"/>
<path d="M291.969 119.227H283.455L278.833 114.605L274.211 119.227H265.697C263.69 119.227 262.048 120.869 262.048 122.876V133.457C262.048 135.464 263.69 137.106 265.697 137.106H291.968C293.975 137.106 295.617 135.464 295.617 133.457V122.876C295.618 120.869 293.976 119.227 291.969 119.227Z" fill="#263238"/>
<path d="M269.734 125.161H274.448V126.251C274.038 126.621 273.696 127.021 273.421 127.452C273.088 127.975 272.825 128.558 272.632 129.2C272.479 129.7 272.376 130.29 272.323 130.972H270.713C270.84 130.023 271.039 129.228 271.312 128.585C271.584 127.943 272.015 127.256 272.605 126.523H269.734V125.161Z" fill="white"/>
<path d="M275.776 125.161H279.61V126.449H277.013L276.874 127.321C277.054 127.237 277.231 127.173 277.407 127.131C277.583 127.089 277.756 127.068 277.928 127.068C278.51 127.068 278.981 127.244 279.343 127.595C279.705 127.947 279.886 128.389 279.886 128.923C279.886 129.298 279.793 129.659 279.607 130.005C279.421 130.351 279.156 130.616 278.814 130.798C278.472 130.98 278.034 131.071 277.5 131.071C277.117 131.071 276.788 131.035 276.515 130.962C276.242 130.889 276.009 130.781 275.817 130.637C275.625 130.493 275.47 130.33 275.351 130.147C275.232 129.965 275.133 129.737 275.054 129.465L276.687 129.287C276.727 129.549 276.819 129.748 276.964 129.884C277.109 130.02 277.283 130.088 277.483 130.088C277.708 130.088 277.893 130.003 278.04 129.832C278.187 129.661 278.26 129.407 278.26 129.069C278.26 128.723 278.186 128.469 278.038 128.308C277.89 128.147 277.693 128.066 277.447 128.066C277.291 128.066 277.14 128.104 276.995 128.181C276.887 128.236 276.768 128.337 276.638 128.482L275.262 128.284L275.776 125.161Z" fill="white"/>
<path d="M280.598 126.588C280.598 126.318 280.657 126.062 280.774 125.819C280.892 125.576 281.071 125.389 281.313 125.258C281.555 125.127 281.841 125.062 282.171 125.062C282.657 125.062 283.041 125.201 283.321 125.478C283.601 125.755 283.741 126.125 283.741 126.588C283.741 127.053 283.601 127.425 283.321 127.702C283.041 127.98 282.658 128.118 282.171 128.118C281.841 128.118 281.554 128.053 281.313 127.922C281.071 127.791 280.891 127.604 280.774 127.361C280.656 127.118 280.598 126.861 280.598 126.588ZM281.712 126.596C281.712 126.924 281.765 127.162 281.871 127.31C281.94 127.408 282.04 127.457 282.172 127.457C282.304 127.457 282.403 127.408 282.469 127.31C282.575 127.162 282.628 126.924 282.628 126.596C282.628 126.271 282.575 126.033 282.469 125.882C282.403 125.787 282.304 125.739 282.172 125.739C282.04 125.739 281.939 125.787 281.871 125.882C281.764 126.031 281.712 126.269 281.712 126.596ZM285.532 125.062H286.37L283.012 131.271H282.183L285.532 125.062ZM284.788 129.732C284.788 129.46 284.846 129.203 284.962 128.961C285.078 128.719 285.258 128.532 285.501 128.4C285.744 128.268 286.03 128.202 286.357 128.202C286.846 128.202 287.231 128.341 287.511 128.62C287.791 128.899 287.931 129.27 287.931 129.732C287.931 130.194 287.791 130.565 287.511 130.844C287.231 131.123 286.846 131.262 286.357 131.262C286.029 131.262 285.744 131.196 285.501 131.064C285.258 130.932 285.078 130.745 284.962 130.503C284.846 130.262 284.788 130.005 284.788 129.732ZM285.902 129.74C285.902 130.068 285.955 130.306 286.061 130.454C286.127 130.549 286.226 130.597 286.358 130.597C286.49 130.597 286.591 130.549 286.659 130.454C286.765 130.306 286.818 130.068 286.818 129.74C286.818 129.412 286.765 129.173 286.659 129.022C286.59 128.927 286.49 128.879 286.358 128.879C286.226 128.879 286.127 128.928 286.061 129.026C285.955 129.175 285.902 129.413 285.902 129.74Z" fill="white"/>
<path opacity="0.1" d="M220.689 140.717L221.696 136.506C221.912 135.602 221.349 134.862 220.445 134.862H205.233C202.739 121.18 193.891 111.127 196.439 94.51C201.444 86.655 183.463 57.445 170.369 75C153.444 76.112 169.099 107.87 136.889 115.99C113.199 121.96 100.207 135.713 94.983 147.252C96.915 148.324 99.131 148.94 101.486 148.94H102.09C105.687 141.205 110.049 136.853 110.319 136.59C110.192 136.875 107.846 142.029 105.754 148.94H222.162L222.45 142.42C222.499 141.348 221.65 140.614 220.689 140.717Z" fill="#407BFF"/>
<path d="M185.56 146.63C183.6 161.83 181.297 191.812 139.692 194.778C112.211 196.727 100.159 170.61 82.859 162.09C84.389 149.61 90.119 137.04 90.319 136.59C89.939 136.96 81.399 145.44 78.379 160.14C76.399 159.41 74.349 158.81 72.219 158.39C72.219 146.63 84.669 124.11 116.889 115.99C149.099 107.87 133.443 76.112 150.369 75C163.463 57.444 181.443 86.654 176.439 94.51C173.22 115.51 188.21 126.02 185.56 146.63Z" fill="#263238"/>
<path d="M201.273 147.206C200.882 144.892 198.123 143.879 196.328 145.392L191.293 149.634C190.708 150.394 190.526 151.39 190.806 152.307L191.696 155.222C194.06 155.472 196.605 154.887 198.599 154.218C200.697 153.514 201.981 151.404 201.613 149.222L201.273 147.206Z" fill="#FFB573"/>
<path d="M172.981 129.717C173.18 130.824 173.448 132.173 173.711 133.415C173.983 134.68 174.255 135.952 174.562 137.214C175.155 139.743 175.845 142.24 176.573 144.705C177.331 147.159 178.179 149.554 179.103 151.886C180.075 154.184 181.131 156.392 182.327 158.441L179.748 156.394C180.166 156.619 180.614 156.873 181.553 156.75C182.451 156.649 183.656 156.245 184.863 155.59C186.088 154.949 187.347 154.109 188.586 153.167C189.815 152.25 191.09 151.132 192.212 150.162L192.446 149.96C193.7 148.876 195.596 149.015 196.679 150.269C197.478 151.194 197.611 152.471 197.123 153.51C196.253 155.358 195.304 156.892 194.16 158.479C193.023 160.038 191.712 161.523 190.145 162.913C188.554 164.264 186.707 165.588 184.275 166.424C183.073 166.843 181.716 167.137 180.266 167.173C178.822 167.224 177.316 166.984 175.909 166.525C174.916 166.201 174.105 165.576 173.546 164.783L173.331 164.478C171.527 161.927 169.981 159.291 168.667 156.598C167.374 153.908 166.246 151.177 165.282 148.418C164.316 145.663 163.506 142.876 162.8 140.072C162.458 138.667 162.125 137.261 161.85 135.837C161.556 134.393 161.326 133.041 161.103 131.437C160.647 128.155 162.938 125.126 166.22 124.67C169.417 124.226 172.375 126.389 172.947 129.535L172.981 129.717Z" fill="#FFB573"/>
<path d="M103.319 339.343C101.769 332.329 102.163 330.687 100.9 326.843C99.825 323.545 99.742 323.742 98.08 320.653C96.979 318.607 99.073 316.976 101.161 316.714C102.787 316.51 104.512 316.436 106.509 316.118L110.833 324.176C108.551 327.073 106.728 334.144 107.536 339.561C108.104 343.437 103.944 342.15 103.319 339.343Z" fill="#407BFF"/>
<path d="M172.955 172.565C172.955 172.565 174.098 231.841 175.308 264.676C178.486 284.113 111.666 324.574 111.666 324.574C110.236 325.252 106.453 317.844 106.508 316.117C106.508 316.117 135.245 273.786 152.369 263.564C133.419 211.119 138.568 172.564 138.568 172.564H172.955V172.565Z" fill="#263238"/>
<path opacity="0.2" d="M138.572 172.57H160.259C160.259 172.57 155.924 230.51 151.092 259.93C133.662 209.35 138.572 172.57 138.572 172.57Z" fill="black"/>
<path opacity="0.2" d="M125.162 290.979C133.392 280.709 142.912 270.019 150.562 264.739C149.472 274.899 148.352 287.159 147.492 299.709C140.302 305.399 132.842 310.689 126.602 314.919C125.612 306.9 125.022 298.69 125.162 290.979Z" fill="black"/>
<path d="M115.859 323.108C114.987 323.733 113.437 324.856 112.32 325.73C111.95 326.019 111.429 325.953 111.131 325.59C108.905 322.868 106.358 317.851 105.541 316.191C105.379 315.862 105.448 315.47 105.707 315.212L108.506 312.431C108.888 312.052 109.521 312.116 109.819 312.564L116.066 321.944C116.321 322.328 116.233 322.84 115.859 323.108Z" fill="#407BFF"/>
<path opacity="0.3" d="M115.859 323.108C114.987 323.733 113.437 324.856 112.32 325.73C111.95 326.019 111.429 325.953 111.131 325.59C108.905 322.868 106.358 317.851 105.541 316.191C105.379 315.862 105.448 315.47 105.707 315.212L108.506 312.431C108.888 312.052 109.521 312.116 109.819 312.564L116.066 321.944C116.321 322.328 116.233 322.84 115.859 323.108Z" fill="white"/>
<path d="M148.074 373.238C140.765 373.238 141.282 373.125 137.163 372.987C133.635 372.861 132.834 373.301 130.002 373.238C127.636 373.188 127.518 370.927 128.01 368.327C128.255 367.021 128.675 365.426 128.986 363.316H140.088C141.857 366.192 145.055 368.352 149.224 368.905C153.204 369.433 150.988 373.238 148.074 373.238Z" fill="#407BFF"/>
<path d="M162.644 172.565C162.644 172.565 151.16 235.768 146.955 264.415C142.538 294.5 137.095 343.331 140.089 363.317C138.467 364.312 132.455 364.372 128.987 363.317C128.987 363.317 111.443 294.708 126.099 265.746C117.759 195.343 130.093 191.677 133.502 172.566L162.644 172.565Z" fill="#263238"/>
<path d="M140.549 359.155C140.673 360.163 140.924 361.919 141.308 363.26C141.446 363.744 141.161 364.192 140.682 364.27C136.678 364.921 130.711 363.978 128.814 363.642C128.451 363.578 128.154 363.294 128.064 362.936L127.109 359.096C126.979 358.571 127.347 358.099 127.88 358.109L139.637 358.335C140.093 358.343 140.493 358.7 140.549 359.155Z" fill="#407BFF"/>
<path opacity="0.3" d="M140.549 359.155C140.673 360.163 140.924 361.919 141.308 363.26C141.446 363.744 141.161 364.192 140.682 364.27C136.678 364.921 130.711 363.978 128.814 363.642C128.451 363.578 128.154 363.294 128.064 362.936L127.109 359.096C126.979 358.571 127.347 358.099 127.88 358.109L139.637 358.335C140.093 358.343 140.493 358.7 140.549 359.155Z" fill="white"/>
<path d="M163.648 117.208C170.929 118.58 172.469 121.556 177.83 132.612C176.213 139.886 167.509 146.281 167.509 146.281C167.509 146.281 151.642 126.612 163.648 117.208Z" fill="white"/>
<path d="M133.502 172.565C126.667 181.889 119.233 196.777 119.172 228.777C154.667 244.777 171.555 244.777 180 240.777C173.909 216.102 172.955 172.565 172.955 172.565C167.333 166.333 133.502 172.565 133.502 172.565Z" fill="#407BFF"/>
<path opacity="0.2" d="M157.444 200.667C154.333 212.167 157.517 223.667 160.258 226.222C158.381 219.583 157.444 200.667 157.444 200.667Z" fill="black"/>
<path d="M175.19 130.985C175.31 134.864 174.929 139.554 174.058 148.788C173.47 156.609 175.418 171.477 172.955 172.566C166.739 174.314 150.41 173.513 133.502 172.566C132.706 161.366 133 153.653 125.916 128.646C124.273 122.848 127.937 117.28 133.785 116.686C135.348 116.527 137.006 116.395 138.708 116.313C145.323 115.993 150.747 115.781 156.623 116.314C158.57 116.49 160.588 116.735 162.518 117.003C169.48 117.969 174.975 124.033 175.19 130.985Z" fill="white"/>
<path d="M145.072 98.944C146.053 104.834 143.439 112.466 139.693 116.312C139.693 116.312 145.153 115.492 156.745 122.661C160.102 117.847 157.608 116.312 157.608 116.312C154.5 115.708 154.497 113.435 155.722 109.056L145.072 98.944Z" fill="#FFB573"/>
<path d="M154.307 121.218C150.489 121.761 149.293 127.528 149.293 127.528C149.293 127.528 140.123 121.042 137.217 116.467C138.578 115.754 140.566 114.341 140.566 114.341C140.566 114.341 152.078 119.014 154.307 121.218Z" fill="#407BFF"/>
<path d="M157.936 120.604C157.936 120.604 160.967 121.26 162.488 125.476C163.362 117.068 159.376 116.295 159.376 116.295C159.376 116.295 158.132 115.224 155.878 115.58C158.905 117.178 157.936 120.604 157.936 120.604Z" fill="#407BFF"/>
<path opacity="0.2" d="M155.72 109.06L149.47 103.12C149.58 104.17 149.75 105.37 149.98 106.58C150.57 109.69 152.74 112.56 155.08 114.27C154.78 113.07 155.08 111.36 155.72 109.06Z" fill="black"/>
<path d="M147.488 85.431C145.04 94.58 143.815 98.39 146.674 104.712C150.974 114.221 162.407 115.764 167.456 107.662C172.001 100.369 175.24 86.633 167.921 79.715C160.709 72.899 149.935 76.282 147.488 85.431Z" fill="#FFB573"/>
<path d="M151.178 76.518C152.595 87.459 167 81.076 175.75 93.746C174.917 82.917 164.325 67.619 151.178 76.518Z" fill="#263238"/>
<path d="M152.083 76.112C164.382 84.333 150.916 90.995 141.833 90.497C138.833 81.417 152.083 76.112 152.083 76.112Z" fill="#263238"/>
<path opacity="0.2" d="M158.292 92.309C158.292 92.309 156.966 90.557 155.135 90.498C156.651 91.823 158.292 92.309 158.292 92.309Z" fill="black"/>
<path opacity="0.2" d="M157.81 93.032C157.81 93.032 156.294 91.72 154.629 92.157C156.239 93.011 157.81 93.032 157.81 93.032Z" fill="black"/>
<path d="M160.111 93.204C159.872 93.963 160.06 94.728 160.531 94.912C161.002 95.097 161.577 94.631 161.815 93.872C162.054 93.113 161.866 92.348 161.395 92.164C160.925 91.98 160.35 92.445 160.111 93.204Z" fill="#263238"/>
<path d="M168.926 96.81C168.687 97.569 168.875 98.334 169.346 98.518C169.817 98.702 170.392 98.237 170.631 97.478C170.87 96.719 170.682 95.954 170.211 95.77C169.739 95.585 169.164 96.051 168.926 96.81Z" fill="#263238"/>
<path d="M169.989 95.73L171.884 95.883C171.884 95.883 170.549 96.959 169.989 95.73Z" fill="#263238"/>
<path d="M166.065 97.087C166.065 97.087 166.26 100.833 167.109 102.937C165.864 103.5 164.382 102.438 164.382 102.438L166.065 97.087Z" fill="#ED893E"/>
<path d="M159.359 103.62C159.71 103.836 160.1 104.033 160.532 104.203C160.649 104.249 160.775 104.186 160.814 104.063C160.853 103.941 160.792 103.805 160.672 103.757C157.513 102.521 156.767 99.613 156.76 99.584C156.729 99.455 156.607 99.375 156.488 99.404C156.369 99.433 156.297 99.56 156.329 99.688C156.357 99.801 156.956 102.143 159.359 103.62Z" fill="#263238"/>
<path d="M143.015 91.52C143.03 93.653 143.916 95.399 145.04 96.376C146.731 97.846 148.669 96.031 149.114 93.487C149.515 91.197 149.117 87.672 146.98 87.224C144.875 86.782 142.997 89.081 143.015 91.52Z" fill="#FFB573"/>
<path d="M159.843 88.246C159.959 88.279 160.085 88.264 160.191 88.195C161.845 87.106 163.381 87.84 163.399 87.849C163.626 87.959 163.891 87.863 163.986 87.628C164.081 87.393 163.971 87.112 163.741 86.998C163.661 86.959 161.733 86.035 159.681 87.387C159.477 87.522 159.425 87.812 159.565 88.035C159.633 88.143 159.734 88.215 159.843 88.246Z" fill="#263238"/>
<path d="M173.16 93.709C173.265 93.754 173.385 93.76 173.494 93.714C173.72 93.62 173.821 93.347 173.719 93.105C172.694 90.671 170.646 90.191 170.559 90.172C170.313 90.118 170.084 90.28 170.046 90.534C170.008 90.788 170.176 91.038 170.421 91.094C170.501 91.112 172.086 91.508 172.9 93.444C172.952 93.569 173.048 93.661 173.16 93.709Z" fill="#263238"/>
<path d="M161.174 92.125L163.069 92.278C163.069 92.278 161.734 93.353 161.174 92.125Z" fill="#263238"/>
<path d="M131.813 131.631L128.797 137.831C127.792 139.919 126.826 142.023 125.895 144.114C124.981 146.209 124.081 148.308 123.311 150.378C122.558 152.445 121.849 154.512 121.427 156.395L121.24 153.919C121.202 154.015 121.408 154.533 121.758 155.105C122.106 155.686 122.619 156.339 123.189 156.986C124.338 158.284 125.718 159.628 127.189 160.905C128.651 162.205 130.21 163.47 131.794 164.731C133.368 165.988 135.036 167.243 136.605 168.464L136.696 168.535C138.006 169.554 138.242 171.442 137.223 172.752C136.42 173.784 135.074 174.146 133.901 173.758C131.761 173.045 129.795 172.223 127.793 171.311C125.807 170.394 123.854 169.38 121.919 168.238C120 167.07 118.078 165.826 116.213 164.221C115.279 163.416 114.347 162.548 113.43 161.461C112.52 160.37 111.604 159.087 110.911 157.19C110.662 156.508 110.59 155.805 110.671 155.131L110.724 154.715C111.08 151.854 111.705 149.293 112.436 146.795C113.149 144.295 114.003 141.919 114.912 139.572C115.805 137.22 116.808 134.941 117.844 132.682C118.904 130.412 119.965 128.244 121.23 125.976C122.844 123.082 126.499 122.044 129.393 123.658C132.184 125.215 133.248 128.668 131.874 131.508L131.813 131.631Z" fill="#FFB573"/>
<path d="M133.418 116.733C126.919 116.717 124.072 118.247 116.885 130.184C118.491 135.31 128.794 141.589 128.794 141.589C128.794 141.589 139.895 127.265 133.418 116.733Z" fill="white"/>
<path d="M144.272 176.46L143.937 173.536C143.811 172.436 143.161 171.465 142.192 170.929L137.665 168.425C135.855 167.424 133.673 167.361 131.808 168.257L130.654 168.812C130.878 173.7 134.722 178.818 134.722 178.818L135.656 180.398C136.488 181.805 138.186 182.284 139.557 181.498L142.713 179.688C143.803 179.061 144.423 177.777 144.272 176.46Z" fill="#FFB573"/>
<path d="M194.818 158.389H160.542C159.638 158.389 159.075 157.649 159.291 156.745L164.132 136.506C164.348 135.602 165.265 134.862 166.169 134.862H200.445C201.349 134.862 201.912 135.602 201.696 136.506L196.855 156.745C196.639 157.649 195.722 158.389 194.818 158.389Z" fill="#407BFF"/>
<path d="M160.673 156.764C160.654 156.764 160.634 156.762 160.615 156.757C160.481 156.725 160.398 156.59 160.43 156.456L164.946 137.577C165.188 136.565 166.211 135.741 167.226 135.741H199.862C200 135.741 200.112 135.853 200.112 135.991C200.112 136.129 200 136.241 199.862 136.241H167.226C166.442 136.241 165.621 136.906 165.432 137.693L160.916 156.572C160.889 156.686 160.786 156.764 160.673 156.764Z" fill="white"/>
<path d="M200.133 140.862L199.676 141.071C198.257 141.718 197.257 143.12 197.162 144.594L196.887 148.861C196.767 150.715 198.101 152.129 199.949 152.111L200.23 152.108C201.211 152.098 202.062 151.247 202.107 150.23L202.452 142.42C202.508 141.143 201.297 140.33 200.133 140.862Z" fill="#FFB573"/>
<path d="M305.066 324.638C301.791 309.981 308.338 274.806 311.099 266.85C313.86 258.894 332.782 249.37 344.284 244.22C355.786 239.07 376.843 253.091 376.843 253.091C376.843 253.091 354.979 250.795 348.697 253.927C342.414 257.059 329.04 266.654 324.651 274.866C320.262 283.078 305.773 307.443 305.066 324.638Z" fill="#263238"/>
<path d="M265.14 268.113C280.188 269.692 292.53 279.984 296.453 283.139C300.376 286.294 301.927 298.862 302.512 306.373C303.096 313.884 290.965 322.914 290.965 322.914C290.965 322.914 296.658 311.07 296.159 306.903C295.661 302.736 292.952 293.277 289.213 289.154C285.474 285.032 277.198 274.216 265.14 268.113Z" fill="#263238"/>
<path d="M300.9 315.13C302.31 294.59 292.486 281.061 293.886 264.804C295.286 248.547 313.623 212.257 315.206 202C318.259 211.081 304.996 254.745 305.576 266.595C306.156 278.444 312.397 302.32 300.9 315.13Z" fill="#407BFF"/>
<path opacity="0.6" d="M300.9 315.13C302.31 294.59 292.486 281.061 293.886 264.804C295.286 248.547 313.623 212.257 315.206 202C318.259 211.081 304.996 254.745 305.576 266.595C306.156 278.444 312.397 302.32 300.9 315.13Z" fill="white"/>
<path d="M285.896 235.49C294.637 237.108 296.484 244.806 296.484 244.806C296.484 244.806 291.631 251.265 282.89 249.647C276.212 248.411 273.871 244.684 274.701 240.774C275.531 236.866 279.219 234.255 285.896 235.49Z" fill="#407BFF"/>
<path d="M306.748 245.687C304.121 250.969 298.871 250.743 298.871 250.743C298.871 250.743 295.635 246.468 298.262 241.185C300.269 237.15 303.075 236.336 305.418 237.579C307.762 238.822 308.755 241.652 306.748 245.687Z" fill="#407BFF"/>
<path d="M302.23 280.376C306.393 284.556 304.498 289.457 304.498 289.457C304.498 289.457 299.412 291.154 295.249 286.974C292.069 283.781 292.196 280.862 294.124 279.04C296.051 277.217 299.049 277.182 302.23 280.376Z" fill="#407BFF"/>
<path d="M310.261 299.139C307.394 301.391 304.523 299.872 304.523 299.872C304.523 299.872 303.851 296.627 306.718 294.375C308.909 292.655 310.691 292.944 311.669 294.26C312.648 295.576 312.452 297.419 310.261 299.139Z" fill="#407BFF"/>
<path d="M316.501 270.616C311.027 276.763 304.043 274.533 304.043 274.533C304.043 274.533 301.256 267.59 306.73 261.443C310.912 256.747 314.988 256.68 317.686 259.213C320.384 261.746 320.684 265.92 316.501 270.616Z" fill="#407BFF"/>
<path d="M301.745 315.814C301.714 315.814 301.682 315.811 301.65 315.805C301.379 315.753 301.201 315.491 301.253 315.22C308.351 278.136 301.759 245.938 281.657 219.52C281.49 219.3 281.532 218.987 281.752 218.82C281.971 218.651 282.285 218.695 282.453 218.915C302.733 245.568 309.389 278.033 302.235 315.408C302.19 315.647 301.98 315.814 301.745 315.814Z" fill="#263238"/>
<path d="M283.98 207.977C290.267 216.197 285.853 224.289 285.853 224.289C285.853 224.289 276.619 226.079 270.332 217.859C265.529 211.579 266.416 206.532 270.184 203.803C273.953 201.074 279.177 201.697 283.98 207.977Z" fill="#407BFF"/>
<path d="M279.235 316.79L278.13 332.472L279.127 332.542L280.232 316.86L279.235 316.79Z" fill="#407BFF"/>
<path d="M277.727 337.953L277.257 344.635L278.254 344.705L278.725 338.024L277.727 337.953Z" fill="#407BFF"/>
<path d="M327.343 304.835H283.611L279.087 368.281H331.867L327.343 304.835Z" fill="#407BFF"/>
<path d="M338.276 360.723C324.732 360.723 313.713 349.704 313.713 336.16C313.713 322.617 324.732 311.598 338.276 311.598C351.82 311.598 362.839 322.617 362.839 336.16C362.838 349.704 351.819 360.723 338.276 360.723ZM338.276 313.599C325.835 313.599 315.713 323.72 315.713 336.161C315.713 348.602 325.835 358.724 338.276 358.724C350.717 358.724 360.839 348.603 360.839 336.161C360.838 323.72 350.717 313.599 338.276 313.599Z" fill="#407BFF"/>
</g>
<defs>
<clipPath id="clip0_232_1646">
<rect width="443" height="387" fill="white"/>
</clipPath>
</defs>
</svg>
