<svg width="24" height="25" viewBox="0 0 24 25" fill="none" xmlns="http://www.w3.org/2000/svg">
<rect y="0.5" width="24" height="24" rx="5" fill="white"/>
<path d="M8.03329 4.66675H6.44996C4.62496 4.66675 3.66663 5.62508 3.66663 7.44175V9.02508C3.66663 10.8417 4.62496 11.8001 6.44163 11.8001H8.02496C9.84163 11.8001 10.8 10.8417 10.8 9.02508V7.44175C10.8083 5.62508 9.84996 4.66675 8.03329 4.66675Z" fill="#6C8795"/>
<path opacity="0.4" d="M17.5579 4.66675H15.9746C14.1579 4.66675 13.1996 5.62508 13.1996 7.44175V9.02508C13.1996 10.8417 14.1579 11.8001 15.9746 11.8001H17.5579C19.3746 11.8001 20.3329 10.8417 20.3329 9.02508V7.44175C20.3329 5.62508 19.3746 4.66675 17.5579 4.66675Z" fill="#6C8795"/>
<path d="M17.5579 14.1919H15.9746C14.1579 14.1919 13.1996 15.1502 13.1996 16.9669V18.5502C13.1996 20.3669 14.1579 21.3252 15.9746 21.3252H17.5579C19.3746 21.3252 20.3329 20.3669 20.3329 18.5502V16.9669C20.3329 15.1502 19.3746 14.1919 17.5579 14.1919Z" fill="#6C8795"/>
<path opacity="0.4" d="M8.03329 14.1919H6.44996C4.62496 14.1919 3.66663 15.1502 3.66663 16.9669V18.5502C3.66663 20.3752 4.62496 21.3336 6.44163 21.3336H8.02496C9.84163 21.3336 10.8 20.3752 10.8 18.5586V16.9752C10.8083 15.1502 9.84996 14.1919 8.03329 14.1919Z" fill="#6C8795"/>
</svg>
