<svg width="24" height="25" viewBox="0 0 24 25" fill="none" xmlns="http://www.w3.org/2000/svg">
<rect y="0.5" width="24" height="24" rx="5" fill="#CEE1FF"/>
<path d="M8.03335 4.66675H6.45002C4.62502 4.66675 3.66669 5.62508 3.66669 7.44175V9.02508C3.66669 10.8417 4.62502 11.8001 6.44169 11.8001H8.02502C9.84169 11.8001 10.8 10.8417 10.8 9.02508V7.44175C10.8084 5.62508 9.85002 4.66675 8.03335 4.66675Z" fill="#4285F4"/>
<path opacity="0.4" d="M17.5579 4.66675H15.9746C14.1579 4.66675 13.1996 5.62508 13.1996 7.44175V9.02508C13.1996 10.8417 14.1579 11.8001 15.9746 11.8001H17.5579C19.3746 11.8001 20.3329 10.8417 20.3329 9.02508V7.44175C20.3329 5.62508 19.3746 4.66675 17.5579 4.66675Z" fill="#4285F4"/>
<path d="M17.5579 14.1919H15.9746C14.1579 14.1919 13.1996 15.1502 13.1996 16.9669V18.5502C13.1996 20.3669 14.1579 21.3252 15.9746 21.3252H17.5579C19.3746 21.3252 20.3329 20.3669 20.3329 18.5502V16.9669C20.3329 15.1502 19.3746 14.1919 17.5579 14.1919Z" fill="#4285F4"/>
<path opacity="0.4" d="M8.03335 14.1919H6.45002C4.62502 14.1919 3.66669 15.1502 3.66669 16.9669V18.5502C3.66669 20.3752 4.62502 21.3336 6.44169 21.3336H8.02502C9.84169 21.3336 10.8 20.3752 10.8 18.5586V16.9752C10.8084 15.1502 9.85002 14.1919 8.03335 14.1919Z" fill="#4285F4"/>
</svg>
