<svg width="24" height="25" viewBox="0 0 24 25" fill="none" xmlns="http://www.w3.org/2000/svg">
<rect y="0.5" width="24" height="24" rx="5" fill="white"/>
<path d="M7.97069 6.67894C7.97069 7.65465 8.34252 8.5904 9.0044 9.28034C9.66627 9.97027 10.564 10.3579 11.5 10.3579C12.436 10.3579 13.3337 9.97027 13.9956 9.28034C14.6575 8.5904 15.0293 7.65465 15.0293 6.67894C15.0293 5.70322 14.6575 4.76747 13.9956 4.07754C13.3337 3.3876 12.436 3 11.5 3C10.564 3 9.66627 3.3876 9.0044 4.07754C8.34252 4.76747 7.97069 5.70322 7.97069 6.67894ZM13.3887 10.9472L11.5 13.5722L9.61131 10.9472C7.41156 11.7727 5.83525 13.9869 5.83525 16.5988V20.1754H5.84444C5.94944 20.8408 8.43794 21.375 11.5 21.375C14.5621 21.375 17.0506 20.8408 17.1582 20.1741H17.1661V16.5988C17.1648 13.9869 15.5884 11.7727 13.3887 10.9472ZM12.0631 10.6256C11.8833 10.6072 11.7008 10.5981 11.5171 10.5981C11.3372 10.5981 11.1601 10.6073 10.9842 10.6243C10.9842 10.6243 10.9566 11.0207 11.1929 11.3029C11.1929 11.3029 11.626 11.3121 11.8426 11.2976C11.8426 11.2976 12.0775 11.0483 12.0631 10.6256ZM11.1863 11.4066H11.8347L12.1261 12.4329L11.5105 13.1784L10.8713 12.4329L11.1863 11.4066ZM5.25906 13.4016L5.72106 12.8411L5.50187 12.072H5.01625L4.77869 12.8411L5.25906 13.4016ZM6.66737 11.7268L5.25119 13.6969L3.83369 11.7268C2.18387 12.3463 1 14.0079 1 15.9675V18.6502H1.00788C1.08662 19.1503 2.953 19.5533 5.25119 19.5533C5.27087 19.5533 5.28925 19.5506 5.30763 19.5506V16.5975C5.30763 14.7771 6.01244 13.1338 7.14775 11.9473C6.99288 11.8646 6.83275 11.7898 6.66737 11.7268ZM5.50844 11.9906C5.50844 11.9906 5.68431 11.8029 5.67381 11.4853C5.53863 11.4722 5.40212 11.4656 5.26431 11.4656C5.12913 11.4656 4.99656 11.4722 4.86531 11.4853C4.86531 11.4853 4.84431 11.7846 5.0215 11.9959C5.02019 11.9959 5.34569 12.0011 5.50844 11.9906ZM2.60256 8.52431C2.60256 9.25636 2.88161 9.95842 3.37833 10.4761C3.87504 10.9937 4.54873 11.2845 5.25119 11.2845C5.95365 11.2845 6.62734 10.9937 7.12405 10.4761C7.62076 9.95842 7.89981 9.25636 7.89981 8.52431C7.89981 7.79227 7.62076 7.0902 7.12405 6.57257C6.62734 6.05493 5.95365 5.76412 5.25119 5.76412C4.54873 5.76412 3.87504 6.05493 3.37833 6.57257C2.88161 7.0902 2.60256 7.79227 2.60256 8.52431ZM18.0061 11.9906C18.0061 11.9906 18.1833 11.8029 18.1714 11.4853C18.0363 11.4722 17.9011 11.4656 17.7619 11.4656C17.6254 11.4656 17.4929 11.4722 17.3603 11.4853C17.3603 11.4853 17.3393 11.7846 17.5165 11.9959C17.5191 11.9959 17.8446 11.9998 18.0061 11.9906ZM17.758 13.4016L18.2187 12.8411L17.9995 12.072H17.5139L17.2776 12.8411L17.758 13.4016ZM15.1015 8.52431C15.1015 9.25636 15.3806 9.95842 15.8773 10.4761C16.374 10.9937 17.0477 11.2845 17.7501 11.2845C18.4526 11.2845 19.1263 10.9937 19.623 10.4761C20.1197 9.95842 20.3988 9.25636 20.3988 8.52431C20.3988 7.79227 20.1197 7.0902 19.623 6.57257C19.1263 6.05493 18.4526 5.76412 17.7501 5.76412C17.0477 5.76412 16.374 6.05493 15.8773 6.57257C15.3806 7.0902 15.1015 7.79227 15.1015 8.52431ZM19.1676 11.7268L17.7501 13.6969L16.3326 11.7268C16.1686 11.7898 16.0098 11.8633 15.8536 11.946C16.9889 13.1338 17.6924 14.7771 17.6937 16.5962V19.5493C17.7121 19.5493 17.7304 19.5493 17.7501 19.5493C20.047 19.5493 21.9134 19.149 21.9921 18.6476H22V15.9675C22 14.0079 20.8161 12.3463 19.1676 11.7268Z" fill="#6C8795"/>
</svg>
