<svg width="24" height="25" viewBox="0 0 24 25" fill="none" xmlns="http://www.w3.org/2000/svg">
<rect y="0.5" width="24" height="24" rx="5" fill="#CEE1FF"/>
<path d="M15.375 13.0625H13.125C12.8143 13.0625 12.5625 13.3143 12.5625 13.625V18.125C12.5625 18.4357 12.8143 18.6875 13.125 18.6875H15.375C15.6857 18.6875 15.9375 18.4357 15.9375 18.125V13.625C15.9375 13.3143 15.6857 13.0625 15.375 13.0625Z" fill="#7DAEFF"/>
<path d="M19.875 9.6875H17.625C17.3143 9.6875 17.0625 9.93934 17.0625 10.25V18.125C17.0625 18.4357 17.3143 18.6875 17.625 18.6875H19.875C20.1857 18.6875 20.4375 18.4357 20.4375 18.125V10.25C20.4375 9.93934 20.1857 9.6875 19.875 9.6875Z" fill="#7DAEFF"/>
<path d="M10.875 11.9375H8.625C8.31434 11.9375 8.0625 12.1893 8.0625 12.5V18.125C8.0625 18.4357 8.31434 18.6875 8.625 18.6875H10.875C11.1857 18.6875 11.4375 18.4357 11.4375 18.125V12.5C11.4375 12.1893 11.1857 11.9375 10.875 11.9375Z" fill="#7DAEFF"/>
<path d="M6.375 14.75H4.125C3.81434 14.75 3.5625 15.0018 3.5625 15.3125V18.125C3.5625 18.4357 3.81434 18.6875 4.125 18.6875H6.375C6.68566 18.6875 6.9375 18.4357 6.9375 18.125V15.3125C6.9375 15.0018 6.68566 14.75 6.375 14.75Z" fill="#7DAEFF"/>
<path d="M20.4375 17.5625H3.5625V19.25C3.5625 19.6976 3.74029 20.1268 4.05676 20.4432C4.37322 20.7597 4.80245 20.9375 5.25 20.9375H18.75C19.1976 20.9375 19.6268 20.7597 19.9432 20.4432C20.2597 20.1268 20.4375 19.6976 20.4375 19.25V17.5625Z" fill="#4285F4"/>
<path d="M5.25 13.0625H4.125C3.97582 13.0625 3.83274 13.0032 3.72725 12.8977C3.62176 12.7922 3.5625 12.6491 3.5625 12.5C3.5625 12.3508 3.62176 12.2077 3.72725 12.1022C3.83274 11.9967 3.97582 11.9375 4.125 11.9375H4.98L8.625 7.4037C8.66812 7.33883 8.72424 7.28363 8.78981 7.24158C8.85538 7.19954 8.92896 7.17156 9.00591 7.15944C9.08285 7.14732 9.16147 7.15131 9.23679 7.17116C9.31211 7.19101 9.38249 7.22628 9.44346 7.27475C9.50444 7.32322 9.55468 7.38382 9.59101 7.45272C9.62734 7.52162 9.64897 7.59731 9.65452 7.67501C9.66007 7.7527 9.64942 7.8307 9.62325 7.90406C9.59709 7.97743 9.55597 8.04456 9.5025 8.1012L5.68875 12.8487C5.63637 12.915 5.56972 12.9686 5.49376 13.0056C5.41781 13.0426 5.33449 13.0621 5.25 13.0625Z" fill="#7DAEFF"/>
<path d="M14.9531 9.935C14.8262 9.93426 14.7033 9.89065 14.6043 9.81125C14.4884 9.71844 14.4139 9.58357 14.3971 9.43605C14.3802 9.28852 14.4224 9.14032 14.5143 9.02375L18.3112 4.27625C18.3636 4.20996 18.4302 4.15632 18.5062 4.11931C18.5822 4.08231 18.6655 4.06289 18.75 4.0625H19.875C20.0241 4.0625 20.1672 4.12176 20.2727 4.22725C20.3782 4.33274 20.4375 4.47582 20.4375 4.625C20.4375 4.77418 20.3782 4.91726 20.2727 5.02275C20.1672 5.12824 20.0241 5.1875 19.875 5.1875H19.02L15.375 9.72125C15.3244 9.78537 15.2604 9.8377 15.1876 9.87462C15.1147 9.91153 15.0347 9.93213 14.9531 9.935Z" fill="#7DAEFF"/>
<path d="M10.9865 7.09866L10.3116 7.99878L13.012 10.0233L13.6868 9.1232L10.9865 7.09866Z" fill="#7DAEFF"/>
<path d="M9.75 8.5625C10.682 8.5625 11.4375 7.80698 11.4375 6.875C11.4375 5.94302 10.682 5.1875 9.75 5.1875C8.81802 5.1875 8.0625 5.94302 8.0625 6.875C8.0625 7.80698 8.81802 8.5625 9.75 8.5625Z" fill="#4285F4"/>
<path d="M14.25 11.9319C15.182 11.9319 15.9375 11.1764 15.9375 10.2444C15.9375 9.3124 15.182 8.55688 14.25 8.55688C13.318 8.55688 12.5625 9.3124 12.5625 10.2444C12.5625 11.1764 13.318 11.9319 14.25 11.9319Z" fill="#4285F4"/>
</svg>
