<svg width="83" height="83" viewBox="0 0 83 83" fill="none" xmlns="http://www.w3.org/2000/svg">
<g filter="url(#filter0_d_120_2219)">
<rect x="8" y="8" width="67" height="67" rx="33.5" fill="#D9E7FF"/>
<path d="M57.3583 26.0382C57.6708 26.3508 57.8463 26.7746 57.8463 27.2166C57.8463 27.6585 57.6708 28.0823 57.3583 28.3949L55.0017 30.7516L58.5367 34.2882C58.8491 34.6008 59.0246 35.0246 59.0246 35.4666C59.0246 35.9085 58.8491 36.3323 58.5367 36.6449L52.645 42.5366C52.4902 42.6915 52.3064 42.8145 52.1041 42.8983C51.9017 42.9822 51.6849 43.0254 51.4658 43.0254C51.2468 43.0254 51.0299 42.9822 50.8276 42.8983C50.6253 42.8145 50.4415 42.6915 50.2867 42.5366L46.7517 39.0016L43.1183 42.6349C44.5641 44.6793 45.1905 47.1917 44.8739 49.6756C44.5572 52.1594 43.3205 54.4343 41.4081 56.0506C39.4957 57.667 37.0466 58.5073 34.5447 58.4057C32.0428 58.304 29.67 57.2677 27.895 55.5016C26.1176 53.7293 25.0716 51.3535 24.9648 48.8458C24.8579 46.3382 25.698 43.882 27.3182 41.965C28.9384 40.048 31.2203 38.8104 33.7107 38.4979C36.2012 38.1855 38.7181 38.8209 40.7617 40.2782L44.395 36.6449L48.285 32.7532L55.0017 26.0366C55.3142 25.7241 55.7381 25.5486 56.18 25.5486C56.6219 25.5486 57.0458 25.7241 57.3583 26.0366V26.0382ZM30.2533 43.7149C29.6228 44.3313 29.1209 45.0667 28.7766 45.8784C28.4322 46.6902 28.2524 47.5622 28.2473 48.4439C28.2423 49.3257 28.4123 50.1996 28.7474 51.0152C29.0824 51.8309 29.576 52.5719 30.1994 53.1954C30.8229 53.819 31.5638 54.3127 32.3794 54.6479C33.1949 54.9831 34.0689 55.1532 34.9506 55.1484C35.8324 55.1435 36.7044 54.9638 37.5162 54.6196C38.328 54.2754 39.0635 53.7736 39.68 53.1432C40.9072 51.8884 41.5901 50.2003 41.5805 48.4451C41.5708 46.6899 40.8694 45.0094 39.6284 43.7682C38.3874 42.527 36.707 41.8252 34.9518 41.8153C33.1966 41.8053 31.5084 42.4879 30.2533 43.7149ZM49.1083 36.6449L51.4667 38.9999L55.0033 35.4649L52.6467 33.1082L49.11 36.6416L49.1083 36.6449Z" fill="#4285F4"/>
</g>
<defs>
<filter id="filter0_d_120_2219" x="0" y="0" width="83" height="83" filterUnits="userSpaceOnUse" color-interpolation-filters="sRGB">
<feFlood flood-opacity="0" result="BackgroundImageFix"/>
<feColorMatrix in="SourceAlpha" type="matrix" values="0 0 0 0 0 0 0 0 0 0 0 0 0 0 0 0 0 0 127 0" result="hardAlpha"/>
<feMorphology radius="8" operator="dilate" in="SourceAlpha" result="effect1_dropShadow_120_2219"/>
<feOffset/>
<feComposite in2="hardAlpha" operator="out"/>
<feColorMatrix type="matrix" values="0 0 0 0 0.904167 0 0 0 0 0.940239 0 0 0 0 1 0 0 0 1 0"/>
<feBlend mode="normal" in2="BackgroundImageFix" result="effect1_dropShadow_120_2219"/>
<feBlend mode="normal" in="SourceGraphic" in2="effect1_dropShadow_120_2219" result="shape"/>
</filter>
</defs>
</svg>
