<svg width="24" height="25" viewBox="0 0 24 25" fill="none" xmlns="http://www.w3.org/2000/svg">
<rect y="0.5" width="24" height="24" rx="5" fill="white"/>
<path d="M11.5 12.5C8.60462 12.5 6.25 10.1454 6.25 7.25C6.25 4.35462 8.60462 2 11.5 2C14.3954 2 16.75 4.35462 16.75 7.25C16.75 10.1454 14.3954 12.5 11.5 12.5ZM9.16637 14.25H8C5.58762 14.25 3.625 16.2126 3.625 18.625V23H9.75L10.9619 16.9424L9.16637 14.25ZM15 14.25H13.8336L12.039 16.9424L13.2509 23H19.3759V18.625C19.3759 16.2126 17.4124 14.25 15 14.25Z" fill="#6C8795"/>
</svg>
