<svg width="67" height="67" viewBox="0 0 67 67" fill="none" xmlns="http://www.w3.org/2000/svg">
<rect width="67" height="67" rx="33.5" fill="#EFF5FF"/>
<g clip-path="url(#clip0_112_13508)">
<path d="M36.3333 52.3333C36.3333 53.25 35.5833 54 34.6667 54H14.6667C13.75 54 13 53.25 13 52.3333C13 45.8833 18.2167 40.6667 24.6667 40.6667C31.1167 40.6667 36.3333 45.8833 36.3333 52.3333ZM31.3333 30.6667C31.3333 26.9833 28.35 24 24.6667 24C20.9833 24 18 26.9833 18 30.6667C18 34.35 20.9833 37.3333 24.6667 37.3333C28.35 37.3333 31.3333 34.35 31.3333 30.6667ZM44.6667 14H28C23.5167 14 19.8833 17.5667 19.7 22C21.1667 21.15 22.85 20.6667 24.6667 20.6667C29.2333 20.6667 33.0667 23.7333 34.2667 27.9167L38 31.65L43.9833 25.6667H41.3333C40.4167 25.6667 39.6667 24.9167 39.6667 24C39.6667 23.0833 40.4167 22.3333 41.3333 22.3333H46.3333C48.1667 22.3333 49.6667 23.8333 49.6667 25.6667V30.6667C49.6667 31.5833 48.9167 32.3333 48 32.3333C47.0833 32.3333 46.3333 31.5833 46.3333 30.6667V28.0167L40.35 34C39.05 35.3 36.9333 35.3 35.6333 34L34.4333 32.8C34.4333 32.8 34.4333 32.8167 34.4333 32.8333C33.9167 35.1833 32.5667 37.2167 30.7167 38.6167C33.3333 39.7667 35.55 41.65 37.1333 44H44.6833C49.2833 44 53.0167 40.2667 53.0167 35.6667V22.3333C53.0167 17.7333 49.2833 14 44.6833 14H44.6667Z" fill="#4285F4"/>
</g>
<defs>
<clipPath id="clip0_112_13508">
<rect width="40" height="40" fill="white" transform="translate(13 14)"/>
</clipPath>
</defs>
</svg>
