<svg width="67" height="67" viewBox="0 0 67 67" fill="none" xmlns="http://www.w3.org/2000/svg">
<rect width="67" height="67" rx="33.5" fill="#EFF5FF"/>
<g clip-path="url(#clip0_112_13440)">
<path d="M33 40.6667C31.6815 40.6667 30.3925 40.2757 29.2962 39.5431C28.1999 38.8106 27.3454 37.7694 26.8408 36.5512C26.3362 35.3331 26.2042 33.9926 26.4614 32.6994C26.7187 31.4062 27.3536 30.2183 28.286 29.286C29.2183 28.3536 30.4062 27.7187 31.6994 27.4614C32.9926 27.2042 34.333 27.3362 35.5512 27.8408C36.7694 28.3454 37.8106 29.1999 38.5431 30.2962C39.2757 31.3925 39.6667 32.6815 39.6667 34C39.6667 35.7681 38.9643 37.4638 37.714 38.7141C36.4638 39.9643 34.7681 40.6667 33 40.6667ZM22.4717 40.6667H14.6667C14.2246 40.6667 13.8007 40.4911 13.4882 40.1785C13.1756 39.866 13 39.442 13 39C13.0158 36.6068 13.8862 34.2981 15.4543 32.4901C17.0223 30.6822 19.1848 29.494 21.5517 29.14C21.8267 29.1015 22.107 29.1323 22.3671 29.2296C22.6272 29.327 22.8589 29.4878 23.041 29.6974C23.2232 29.9071 23.35 30.1589 23.4101 30.43C23.4702 30.7012 23.4616 30.983 23.385 31.25C23.1296 32.1443 23 33.0699 23 34C23.0005 35.4829 23.3343 36.9468 23.9767 38.2833C24.0975 38.537 24.1522 38.8171 24.1358 39.0977C24.1193 39.3782 24.0322 39.65 23.8825 39.8878C23.7328 40.1256 23.5255 40.3217 23.2797 40.4579C23.0339 40.5941 22.7577 40.6659 22.4767 40.6667H22.4717ZM41.3333 54H24.6667C24.2246 54 23.8007 53.8244 23.4882 53.5119C23.1756 53.1993 23 52.7754 23 52.3333C23 49.6812 24.0536 47.1376 25.9289 45.2623C27.8043 43.3869 30.3478 42.3333 33 42.3333C35.6522 42.3333 38.1957 43.3869 40.0711 45.2623C41.9464 47.1376 43 49.6812 43 52.3333C43 52.7754 42.8244 53.1993 42.5118 53.5119C42.1993 53.8244 41.7754 54 41.3333 54ZM43 27.3333C41.6815 27.3333 40.3925 26.9423 39.2962 26.2098C38.1999 25.4773 37.3454 24.4361 36.8408 23.2179C36.3362 21.9997 36.2042 20.6593 36.4614 19.3661C36.7187 18.0729 37.3536 16.885 38.286 15.9526C39.2183 15.0203 40.4062 14.3853 41.6994 14.1281C42.9926 13.8709 44.333 14.0029 45.5512 14.5075C46.7694 15.0121 47.8106 15.8665 48.5431 16.9629C49.2757 18.0592 49.6667 19.3481 49.6667 20.6667C49.6667 22.4348 48.9643 24.1305 47.714 25.3807C46.4638 26.631 44.7681 27.3333 43 27.3333ZM23 27.3333C21.6815 27.3333 20.3925 26.9423 19.2962 26.2098C18.1999 25.4773 17.3454 24.4361 16.8408 23.2179C16.3362 21.9997 16.2042 20.6593 16.4614 19.3661C16.7187 18.0729 17.3536 16.885 18.286 15.9526C19.2183 15.0203 20.4062 14.3853 21.6994 14.1281C22.9926 13.8709 24.333 14.0029 25.5512 14.5075C26.7694 15.0121 27.8106 15.8665 28.5431 16.9629C29.2757 18.0592 29.6667 19.3481 29.6667 20.6667C29.6667 22.4348 28.9643 24.1305 27.714 25.3807C26.4638 26.631 24.7681 27.3333 23 27.3333ZM51.3333 40.6667H43.5283C43.2473 40.6659 42.9711 40.5941 42.7253 40.4579C42.4795 40.3217 42.2722 40.1256 42.1225 39.8878C41.9728 39.65 41.8857 39.3782 41.8692 39.0977C41.8528 38.8171 41.9075 38.537 42.0283 38.2833C42.669 36.9464 43.0011 35.4825 43 34C42.9973 33.0695 42.8649 32.1439 42.6067 31.25C42.5297 30.9823 42.521 30.6995 42.5815 30.4276C42.6419 30.1557 42.7696 29.9032 42.9528 29.6933C43.1359 29.4835 43.3688 29.3229 43.6301 29.2262C43.8913 29.1295 44.1727 29.0999 44.4483 29.14C46.8152 29.494 48.9777 30.6822 50.5457 32.4901C52.1138 34.2981 52.9842 36.6068 53 39C53 39.442 52.8244 39.866 52.5118 40.1785C52.1993 40.4911 51.7754 40.6667 51.3333 40.6667Z" fill="#4285F4"/>
</g>
<defs>
<clipPath id="clip0_112_13440">
<rect width="40" height="40" fill="white" transform="translate(13 14)"/>
</clipPath>
</defs>
</svg>
