<svg width="67" height="67" viewBox="0 0 67 67" fill="none" xmlns="http://www.w3.org/2000/svg">
<rect width="67" height="67" rx="33.5" fill="#DFF2E4"/>
<path d="M26.2775 23.5075C26.2775 25.366 26.9858 27.1484 28.2465 28.4626C29.5072 29.7767 31.2171 30.515 33 30.515C34.7829 30.515 36.4928 29.7767 37.7535 28.4626C39.0142 27.1484 39.7225 25.366 39.7225 23.5075C39.7225 21.649 39.0142 19.8666 37.7535 18.5524C36.4928 17.2383 34.7829 16.5 33 16.5C31.2171 16.5 29.5072 17.2383 28.2465 18.5524C26.9858 19.8666 26.2775 21.649 26.2775 23.5075ZM36.5975 31.6375L33 36.6375L29.4025 31.6375C25.2125 33.21 22.21 37.4275 22.21 42.4025V49.215H22.2275C22.4275 50.4825 27.1675 51.5 33 51.5C38.8325 51.5 43.5725 50.4825 43.7775 49.2125H43.7925V42.4025C43.79 37.4275 40.7875 33.21 36.5975 31.6375ZM34.0725 31.025C33.73 30.99 33.3825 30.9725 33.0325 30.9725C32.69 30.9725 32.3525 30.99 32.0175 31.0225C32.0175 31.0225 31.965 31.7775 32.415 32.315C32.415 32.315 33.24 32.3325 33.6525 32.305C33.6525 32.305 34.1 31.83 34.0725 31.025ZM32.4025 32.5125H33.6375L34.1925 34.4675L33.02 35.8875L31.8025 34.4675L32.4025 32.5125ZM21.1125 36.3125L21.9925 35.245L21.575 33.78H20.65L20.1975 35.245L21.1125 36.3125ZM23.795 33.1225L21.0975 36.875L18.3975 33.1225C15.255 34.3025 13 37.4675 13 41.2V46.31H13.015C13.165 47.2625 16.72 48.03 21.0975 48.03C21.135 48.03 21.17 48.025 21.205 48.025V42.4C21.205 38.9325 22.5475 35.8025 24.71 33.5425C24.415 33.385 24.11 33.2425 23.795 33.1225ZM21.5875 33.625C21.5875 33.625 21.9225 33.2675 21.9025 32.6625C21.645 32.6375 21.385 32.625 21.1225 32.625C20.865 32.625 20.6125 32.6375 20.3625 32.6625C20.3625 32.6625 20.3225 33.2325 20.66 33.635C20.6575 33.635 21.2775 33.645 21.5875 33.625ZM16.0525 27.0225C16.0525 28.4169 16.584 29.7541 17.5301 30.7401C18.4763 31.7261 19.7595 32.28 21.0975 32.28C22.4355 32.28 23.7187 31.7261 24.6649 30.7401C25.611 29.7541 26.1425 28.4169 26.1425 27.0225C26.1425 25.6281 25.611 24.2909 24.6649 23.3049C23.7187 22.3189 22.4355 21.765 21.0975 21.765C19.7595 21.765 18.4763 22.3189 17.5301 23.3049C16.584 24.2909 16.0525 25.6281 16.0525 27.0225ZM45.3925 33.625C45.3925 33.625 45.73 33.2675 45.7075 32.6625C45.45 32.6375 45.1925 32.625 44.9275 32.625C44.6675 32.625 44.415 32.6375 44.1625 32.6625C44.1625 32.6625 44.1225 33.2325 44.46 33.635C44.465 33.635 45.085 33.6425 45.3925 33.625ZM44.92 36.3125L45.7975 35.245L45.38 33.78H44.455L44.005 35.245L44.92 36.3125ZM39.86 27.0225C39.86 28.4169 40.3915 29.7541 41.3376 30.7401C42.2838 31.7261 43.567 32.28 44.905 32.28C46.243 32.28 47.5262 31.7261 48.4724 30.7401C49.4185 29.7541 49.95 28.4169 49.95 27.0225C49.95 25.6281 49.4185 24.2909 48.4724 23.3049C47.5262 22.3189 46.243 21.765 44.905 21.765C43.567 21.765 42.2838 22.3189 41.3376 23.3049C40.3915 24.2909 39.86 25.6281 39.86 27.0225ZM47.605 33.1225L44.905 36.875L42.205 33.1225C41.8925 33.2425 41.59 33.3825 41.2925 33.54C43.455 35.8025 44.795 38.9325 44.7975 42.3975V48.0225C44.8325 48.0225 44.8675 48.0225 44.905 48.0225C49.28 48.0225 52.835 47.26 52.985 46.305H53V41.2C53 37.4675 50.745 34.3025 47.605 33.1225Z" fill="#34A853"/>
</svg>
