<svg width="67" height="67" viewBox="0 0 67 67" fill="none" xmlns="http://www.w3.org/2000/svg">
<rect width="67" height="67" rx="33.5" fill="#EFF5FF"/>
<g clip-path="url(#clip0_112_13388)">
<path d="M48.625 50H37.625C37.1974 50 36.7945 49.8006 36.5346 49.4624C36.2747 49.1227 36.1854 48.6827 36.2968 48.2689C37.1094 45.2397 39.9171 43.125 43.125 43.125C46.3329 43.125 49.1406 45.2397 49.9533 48.2689C50.0646 48.6827 49.9766 49.1227 49.7154 49.4624C49.4569 49.802 49.0526 50 48.625 50ZM43.125 41.75C41.2289 41.75 39.6875 40.2086 39.6875 38.3125C39.6875 36.4164 41.2289 34.875 43.125 34.875C45.0211 34.875 46.5625 36.4164 46.5625 38.3125C46.5625 40.2086 45.0211 41.75 43.125 41.75ZM49.9478 27.6219L48.3363 21.9857C47.4975 19.0501 44.7778 17 41.7253 17H40.375V22.5C40.375 23.259 39.7604 23.875 39 23.875C38.2396 23.875 37.625 23.259 37.625 22.5V17H29.375V22.5C29.375 23.259 28.759 23.875 28 23.875C27.241 23.875 26.625 23.259 26.625 22.5V17H25.2734C22.2209 17 19.5025 19.0501 18.6624 21.9857L17.0536 27.6219C17.0192 27.7443 17 27.8721 17 28C17 31.0332 19.4667 33.5 22.5 33.5H23.875C25.525 33.5 26.9908 32.7548 28 31.5998C29.0092 32.7548 30.475 33.5 32.125 33.5H34.875C36.5264 33.5 37.9907 32.7548 39 31.5998C40.0093 32.7548 41.4736 33.5 43.125 33.5H44.5C47.5333 33.5 50 31.0332 50 28C50 27.8721 49.9821 27.7443 49.9478 27.6219ZM33.6416 47.5525C34.303 45.0857 35.9228 43.0755 38.0306 41.8105C37.3445 40.8136 36.9375 39.6105 36.9375 38.3111C36.9375 37.4146 37.1383 36.5676 37.482 35.799C36.6474 36.0836 35.7715 36.2486 34.875 36.2486H32.125C30.6648 36.2486 29.2444 35.8526 28 35.1225C26.7556 35.8526 25.3352 36.2486 23.875 36.2486H22.5C20.9971 36.2486 19.5905 35.8375 18.375 35.1321V44.4986C18.375 47.5319 20.8417 49.9986 23.875 49.9986H33.764C33.4876 49.2176 33.423 48.3651 33.6416 47.5525Z" fill="#4285F4"/>
</g>
<defs>
<clipPath id="clip0_112_13388">
<rect width="33" height="33" fill="white" transform="translate(17 17)"/>
</clipPath>
</defs>
</svg>
