<svg width="67" height="67" viewBox="0 0 67 67" fill="none" xmlns="http://www.w3.org/2000/svg">
<rect width="67" height="67" rx="33.5" fill="#DFF2E4"/>
<g clip-path="url(#clip0_112_13447)">
<path d="M39.1666 26.6667C35.9499 26.6667 33.3333 24.05 33.3333 20.8333C33.3333 17.6167 35.9499 15 39.1666 15C42.3833 15 44.9999 17.6167 44.9999 20.8333C44.9999 24.05 42.3833 26.6667 39.1666 26.6667ZM24.1666 26.6667C20.9499 26.6667 18.3333 24.05 18.3333 20.8333C18.3333 17.6167 20.9499 15 24.1666 15C27.3833 15 29.9999 17.6167 29.9999 20.8333C29.9999 24.05 27.3833 26.6667 24.1666 26.6667ZM44.9999 35C39.4766 35 34.9999 39.4767 34.9999 45C34.9999 50.5233 39.4766 55 44.9999 55C50.5233 55 54.9999 50.5233 54.9999 45C54.9999 39.4767 50.5233 35 44.9999 35ZM51.1383 44.52L46.6333 48.8767C45.8799 49.62 44.8799 49.995 43.8783 49.995C42.8766 49.995 41.8733 49.62 41.1066 48.8717L38.8499 46.6517C38.1916 46.0067 38.1833 44.9517 38.8266 44.295C39.4699 43.6367 40.5249 43.6267 41.1833 44.2717L43.4399 46.49C43.6799 46.7267 44.0733 46.7217 44.3099 46.4867L48.8316 42.1133C49.4933 41.4783 50.5499 41.4967 51.1883 42.1617C51.8249 42.825 51.8033 43.88 51.1399 44.5183L51.1383 44.52ZM22.4999 34.1667C22.4999 31.9583 23.2849 29.93 24.5899 28.3467C24.4349 28.3383 24.2783 28.3333 24.1216 28.3333C19.4416 28.3333 15.5249 31.8383 15.0099 36.4833C14.9583 36.955 15.1099 37.425 15.4249 37.7783C15.7399 38.1317 16.1933 38.3333 16.6666 38.3333H23.5033C22.8616 37.0833 22.4999 35.6667 22.4999 34.1667ZM31.6666 40C32.0099 40 32.3449 39.97 32.6716 39.9133C33.6716 37.495 35.3599 35.435 37.4949 33.9783C37.3949 30.85 34.8183 28.335 31.6649 28.335C28.4483 28.335 25.8316 30.9517 25.8316 34.1683C25.8316 37.385 28.4483 40.0017 31.6649 40.0017L31.6666 40ZM31.6666 45C31.6666 43.8817 31.8049 42.795 32.0649 41.7567C31.6466 41.6983 31.2216 41.6667 30.7883 41.6667C26.1083 41.6667 22.1916 45.1717 21.6766 49.8167C21.6249 50.2883 21.7766 50.7583 22.0916 51.1117C22.4066 51.465 22.8599 51.6667 23.3333 51.6667H33.4499C32.3149 49.705 31.6649 47.4283 31.6649 45H31.6666Z" fill="#34A853"/>
</g>
<defs>
<clipPath id="clip0_112_13447">
<rect width="40" height="40" fill="white" transform="translate(15 15)"/>
</clipPath>
</defs>
</svg>
